<?xml version="1.0" encoding="utf-8"?><!-- Generator: Adobe Illustrator 21.1.0, SVG Export Plug-In . SVG Version: 6.00 Build 0)  --><svg xmlns="http://www.w3.org/2000/svg" xmlns:xlink="http://www.w3.org/1999/xlink" version="1.1" id="Capa_1" x="0px" y="0px" viewBox="0 0 58 46" style="enable-background:new 0 0 58 46;" xml:space="preserve" height="100%" width="100%">
<title>pic</title>
<path d="M57,0H1C0.4,0,0,0.4,0,1v44c0,0.6,0.4,1,1,1h56c0.6,0,1-0.4,1-1V1C58,0.4,57.6,0,57,0z M16,11c3.1,0,5.6,2.5,5.6,5.6  s-2.5,5.6-5.6,5.6s-5.6-2.5-5.6-5.6l0,0C10.4,13.5,12.9,11,16,11z M52.7,29.7c-0.4,0.4-1,0.4-1.4,0.1L40.1,19.4l-9.2,10.1l4.8,4.8  c0.4,0.4,0.3,1.1-0.1,1.4c-0.4,0.3-0.9,0.3-1.3,0L24,25.4L7.7,39.8c-0.4,0.4-1,0.4-1.4,0c-0.4-0.4-0.4-1,0-1.4c0,0,0,0,0.1-0.1  l17-15c0.4-0.4,1-0.4,1.4,0l4.7,4.7l9.8-10.7c0.2-0.2,0.5-0.3,0.8-0.3c0.3,0,0.5,0.1,0.7,0.3l12,11C53.1,28.6,53.1,29.3,52.7,29.7  C52.7,29.7,52.7,29.7,52.7,29.7z"/>
</svg>